<mxfile host="65bd71144e">
    <diagram id="-akxkNzu8XAtu_iUrY7z" name="Страница 1">
        <mxGraphModel dx="798" dy="177" grid="1" gridSize="10" guides="1" tooltips="1" connect="1" arrows="1" fold="1" page="1" pageScale="1" pageWidth="827" pageHeight="1169" math="0" shadow="0">
            <root>
                <mxCell id="0"/>
                <mxCell id="1" parent="0"/>
                <mxCell id="VP_z4Ou5BWgQG30qcxvn-9" style="edgeStyle=orthogonalEdgeStyle;rounded=0;orthogonalLoop=1;jettySize=auto;html=1;entryX=0.5;entryY=0;entryDx=0;entryDy=0;" parent="1" source="VP_z4Ou5BWgQG30qcxvn-1" target="VP_z4Ou5BWgQG30qcxvn-2" edge="1">
                    <mxGeometry relative="1" as="geometry"/>
                </mxCell>
                <mxCell id="VP_z4Ou5BWgQG30qcxvn-1" value="main.py" style="rounded=0;whiteSpace=wrap;html=1;" parent="1" vertex="1">
                    <mxGeometry x="330" y="100" width="120" height="60" as="geometry"/>
                </mxCell>
                <mxCell id="VP_z4Ou5BWgQG30qcxvn-10" style="edgeStyle=orthogonalEdgeStyle;rounded=0;orthogonalLoop=1;jettySize=auto;html=1;entryX=0;entryY=0.5;entryDx=0;entryDy=0;" parent="1" source="VP_z4Ou5BWgQG30qcxvn-2" target="VP_z4Ou5BWgQG30qcxvn-3" edge="1">
                    <mxGeometry relative="1" as="geometry"/>
                </mxCell>
                <mxCell id="VP_z4Ou5BWgQG30qcxvn-14" style="edgeStyle=orthogonalEdgeStyle;rounded=0;orthogonalLoop=1;jettySize=auto;html=1;entryX=0;entryY=0.5;entryDx=0;entryDy=0;" parent="1" source="VP_z4Ou5BWgQG30qcxvn-2" target="VP_z4Ou5BWgQG30qcxvn-8" edge="1">
                    <mxGeometry relative="1" as="geometry">
                        <Array as="points">
                            <mxPoint x="475" y="270"/>
                            <mxPoint x="475" y="370"/>
                        </Array>
                    </mxGeometry>
                </mxCell>
                <mxCell id="VP_z4Ou5BWgQG30qcxvn-15" style="edgeStyle=orthogonalEdgeStyle;rounded=0;orthogonalLoop=1;jettySize=auto;html=1;entryX=1;entryY=0.5;entryDx=0;entryDy=0;" parent="1" source="VP_z4Ou5BWgQG30qcxvn-2" target="VP_z4Ou5BWgQG30qcxvn-5" edge="1">
                    <mxGeometry relative="1" as="geometry"/>
                </mxCell>
                <mxCell id="VP_z4Ou5BWgQG30qcxvn-16" style="edgeStyle=orthogonalEdgeStyle;rounded=0;orthogonalLoop=1;jettySize=auto;html=1;entryX=1;entryY=0.5;entryDx=0;entryDy=0;" parent="1" source="VP_z4Ou5BWgQG30qcxvn-2" target="VP_z4Ou5BWgQG30qcxvn-6" edge="1">
                    <mxGeometry relative="1" as="geometry">
                        <Array as="points">
                            <mxPoint x="300" y="260"/>
                            <mxPoint x="300" y="370"/>
                        </Array>
                    </mxGeometry>
                </mxCell>
                <mxCell id="VP_z4Ou5BWgQG30qcxvn-17" style="edgeStyle=orthogonalEdgeStyle;rounded=0;orthogonalLoop=1;jettySize=auto;html=1;entryX=1;entryY=0.5;entryDx=0;entryDy=0;" parent="1" source="VP_z4Ou5BWgQG30qcxvn-2" target="VP_z4Ou5BWgQG30qcxvn-7" edge="1">
                    <mxGeometry relative="1" as="geometry">
                        <Array as="points">
                            <mxPoint x="310" y="270"/>
                            <mxPoint x="310" y="490"/>
                        </Array>
                    </mxGeometry>
                </mxCell>
                <mxCell id="VP_z4Ou5BWgQG30qcxvn-2" value="controller.py" style="rounded=0;whiteSpace=wrap;html=1;" parent="1" vertex="1">
                    <mxGeometry x="330" y="220" width="120" height="60" as="geometry"/>
                </mxCell>
                <mxCell id="VP_z4Ou5BWgQG30qcxvn-13" style="edgeStyle=orthogonalEdgeStyle;rounded=0;orthogonalLoop=1;jettySize=auto;html=1;entryX=0.5;entryY=1;entryDx=0;entryDy=0;" parent="1" source="VP_z4Ou5BWgQG30qcxvn-3" target="VP_z4Ou5BWgQG30qcxvn-4" edge="1">
                    <mxGeometry relative="1" as="geometry"/>
                </mxCell>
                <mxCell id="VP_z4Ou5BWgQG30qcxvn-3" value="ui.py&lt;br&gt;" style="rounded=0;whiteSpace=wrap;html=1;" parent="1" vertex="1">
                    <mxGeometry x="500" y="220" width="120" height="60" as="geometry"/>
                </mxCell>
                <mxCell id="VP_z4Ou5BWgQG30qcxvn-4" value="check.py" style="rounded=0;whiteSpace=wrap;html=1;" parent="1" vertex="1">
                    <mxGeometry x="500" y="100" width="120" height="60" as="geometry"/>
                </mxCell>
                <mxCell id="VP_z4Ou5BWgQG30qcxvn-5" value="operations.py" style="rounded=0;whiteSpace=wrap;html=1;" parent="1" vertex="1">
                    <mxGeometry x="150" y="220" width="120" height="60" as="geometry"/>
                </mxCell>
                <mxCell id="VP_z4Ou5BWgQG30qcxvn-6" value="exportdb.py" style="rounded=0;whiteSpace=wrap;html=1;" parent="1" vertex="1">
                    <mxGeometry x="150" y="340" width="120" height="60" as="geometry"/>
                </mxCell>
                <mxCell id="VP_z4Ou5BWgQG30qcxvn-19" style="edgeStyle=orthogonalEdgeStyle;rounded=0;orthogonalLoop=1;jettySize=auto;html=1;" parent="1" source="VP_z4Ou5BWgQG30qcxvn-7" edge="1">
                    <mxGeometry relative="1" as="geometry">
                        <mxPoint x="150" y="228" as="targetPoint"/>
                        <Array as="points">
                            <mxPoint x="120" y="490"/>
                            <mxPoint x="120" y="228"/>
                        </Array>
                    </mxGeometry>
                </mxCell>
                <mxCell id="VP_z4Ou5BWgQG30qcxvn-7" value="import.db" style="rounded=0;whiteSpace=wrap;html=1;" parent="1" vertex="1">
                    <mxGeometry x="150" y="460" width="120" height="60" as="geometry"/>
                </mxCell>
                <mxCell id="VP_z4Ou5BWgQG30qcxvn-8" value="logger.py" style="rounded=0;whiteSpace=wrap;html=1;" parent="1" vertex="1">
                    <mxGeometry x="500" y="340" width="120" height="60" as="geometry"/>
                </mxCell>
            </root>
        </mxGraphModel>
    </diagram>
</mxfile>